HIERARCHY
ROOT Pelvis
{
	OFFSET 0.000000 0.000000 0.000000
	CHANNELS 6 Xposition Yposition Zposition Zrotation Yrotation Xrotation 
	JOINT Left_hip
	{
		OFFSET 0.076090 -0.089427 -0.010735
		CHANNELS 3 Zrotation Yrotation Xrotation
		JOINT Left_knee
		{
			OFFSET 0.030200 -0.359518 -0.003501
			CHANNELS 3 Zrotation Yrotation Xrotation
			JOINT Left_ankle
			{
				OFFSET -0.011005 -0.371022 -0.045888
				CHANNELS 3 Zrotation Yrotation Xrotation
				JOINT Left_foot
				{
					OFFSET 0.023930 -0.052103 0.111084
					CHANNELS 3 Zrotation Yrotation Xrotation
					End Site
					{
						OFFSET 0.000000 0.000000 0.000000
					}
				}
			}
		}
	}
	JOINT Right_hip
	{
		OFFSET -0.073836 -0.088112 -0.007709
		CHANNELS 3 Zrotation Yrotation Xrotation
		JOINT Right_knee
		{
			OFFSET -0.035715 -0.367809 -0.006536
			CHANNELS 3 Zrotation Yrotation Xrotation
			JOINT Right_ankle
			{
				OFFSET 0.013718 -0.371958 -0.043815
				CHANNELS 3 Zrotation Yrotation Xrotation
				JOINT Right_foot
				{
					OFFSET -0.021936 -0.046387 0.114542
					CHANNELS 3 Zrotation Yrotation Xrotation
					End Site
					{
						OFFSET 0.000000 0.000000 0.000000
					}
				}
			}
		}
	}
	JOINT Spine1
	{
		OFFSET -0.001865 0.102064 -0.019455
		CHANNELS 3 Zrotation Yrotation Xrotation
		JOINT Spine2
		{
			OFFSET 0.003082 0.129260 -0.001938
			CHANNELS 3 Zrotation Yrotation Xrotation
			JOINT Spine3
			{
				OFFSET 0.001104 0.048093 0.026561
				CHANNELS 3 Zrotation Yrotation Xrotation
				JOINT Neck
				{
					OFFSET -0.002010 0.204222 -0.047183
					CHANNELS 3 Zrotation Yrotation Xrotation
					JOINT Head
					{
						OFFSET 0.005050 0.063649 0.048489
						CHANNELS 3 Zrotation Yrotation Xrotation
						End Site
						{
							OFFSET 0.000000 0.000000 0.000000
						}
					}
				}
				JOINT Left_collar
				{
					OFFSET 0.072979 0.114065 -0.031633
					CHANNELS 3 Zrotation Yrotation Xrotation
					JOINT Left_shoulder
					{
						OFFSET 0.083419 0.032092 -0.006530
						CHANNELS 3 Zrotation Yrotation Xrotation
						JOINT Left_elbow
						{
							OFFSET 0.239393 -0.012014 -0.025060
							CHANNELS 3 Zrotation Yrotation Xrotation
							JOINT Left_wrist
							{
								OFFSET 0.227297 0.008116 0.000384
								CHANNELS 3 Zrotation Yrotation Xrotation
								JOINT Left_palm
								{
									OFFSET 0.074607 -0.009248 -0.012277
									CHANNELS 3 Zrotation Yrotation Xrotation
									End Site
									{
										OFFSET 0.000000 0.000000 0.000000
									}
								}
							}
						}
					}
				}
				JOINT Right_collar
				{
					OFFSET -0.074980 0.111880 -0.037894
					CHANNELS 3 Zrotation Yrotation Xrotation
					JOINT Right_shoulder
					{
						OFFSET -0.087565 0.034353 -0.009323
						CHANNELS 3 Zrotation Yrotation Xrotation
						JOINT Right_elbow
						{
							OFFSET -0.236838 -0.013719 -0.019794
							CHANNELS 3 Zrotation Yrotation Xrotation
							JOINT Right_wrist
							{
								OFFSET -0.235053 0.006433 -0.003853
								CHANNELS 3 Zrotation Yrotation Xrotation
								JOINT Right_palm
								{
									OFFSET -0.075499 -0.006894 -0.009792
									CHANNELS 3 Zrotation Yrotation Xrotation
									End Site
									{
										OFFSET 0.000000 0.000000 0.000000
									}
								}
							}
						}
					}
				}
			}
		}
	}
}
MOTION
Frames: 9
Frame Time: 0.100000
0.149437 0.576615 0.028836 136.844735 64.483012 -60.125305 8.259637 -3.158043 -65.420386 -1.243191 16.964135 160.047655 14.370844 11.916114 -25.459697 -14.422984 10.599722 -45.797213 -20.430709 -14.506038 -87.938890 4.464485 -10.142161 130.568283 11.376056 -4.943517 -27.060030 -27.272988 -4.362179 -9.773026 12.899191 -15.331664 34.359114 -5.589378 -0.374965 -19.042077 -5.093070 -4.917345 5.645455 -19.081294 -16.398160 -5.079641 -9.386907 16.555839 12.499210 -5.130573 -37.383860 -8.152116 -63.223718 -53.494094 25.334892 71.410308 -61.136237 -43.841509 39.046903 -19.607329 1.790707 -2.534198 7.529170 11.069504 -25.214203 17.128378 -16.615981 -19.217546 7.283515 -16.557447 -81.320095 74.319070 -64.882609 -13.203003 22.433800 11.310805 -13.242283 0.719513 12.234708 
0.143871 0.578417 0.028398 137.518263 64.752372 -59.710589 8.092295 -2.911441 -64.713476 -1.590591 17.297243 160.287474 14.391836 10.871642 -24.804080 -14.823864 10.233969 -46.352704 -20.948013 -16.234532 -87.340386 4.910435 -10.322284 130.883589 11.512738 -3.493988 -27.120458 -27.645044 -4.227350 -9.944987 12.941753 -15.052647 33.656975 -6.037287 -0.572182 -19.100574 -5.510655 -4.864587 5.413776 -19.562414 -15.910928 -5.060213 -9.525281 16.678267 13.376694 -6.093984 -37.659105 -7.684119 -62.715004 -52.922483 25.234494 63.211902 -60.146166 -37.679994 38.879795 -19.770058 1.584655 -3.257319 7.616607 11.153992 -24.295913 17.639908 -16.174529 -19.273811 7.681306 -15.851270 -76.496970 76.157711 -60.688059 -13.404106 22.716545 12.027629 -12.440189 0.954799 11.880453 
0.139519 0.580166 0.026768 137.760547 64.775543 -59.599143 7.642794 -2.349707 -63.988535 -1.730035 17.514874 160.483490 14.501652 10.346966 -24.725986 -15.129978 10.251989 -46.816859 -21.022724 -16.860021 -87.047795 5.410635 -10.269469 131.031023 11.551255 -3.222979 -27.489442 -28.053202 -3.998896 -10.351992 13.180502 -15.168240 33.290431 -6.628241 -0.588899 -19.191569 -5.783487 -4.763703 5.196950 -19.918531 -16.116163 -6.284755 -9.677601 16.972552 12.523080 -6.626628 -38.283142 -7.568035 -62.269721 -52.478720 25.025972 56.323259 -58.940248 -31.837484 39.336470 -20.220548 2.537233 -3.538020 7.689525 10.861177 -24.316630 18.639318 -16.147256 -19.116037 8.052654 -15.052707 -64.048657 78.016826 -48.813792 -13.673410 22.986045 12.954014 -12.201176 0.990942 11.573510 
0.136773 0.582041 0.025305 137.575427 64.690687 -59.907437 7.372401 -2.144419 -63.245321 -1.622483 17.727510 160.676113 14.547052 10.412443 -25.041757 -15.134172 10.471821 -47.002500 -21.092690 -16.808468 -87.082069 5.710980 -10.033431 131.164550 12.200891 -3.541756 -27.000987 -29.097455 -3.409869 -11.134695 13.120733 -15.231921 33.082684 -6.941225 -0.546585 -19.000933 -5.935028 -4.733238 5.271552 -20.093687 -16.248718 -7.435882 -9.805664 16.915716 12.073934 -6.432247 -38.734746 -7.677246 -62.457792 -52.662794 25.068539 52.849025 -57.578073 -29.433780 39.613569 -20.067980 2.448291 -3.282894 7.639934 11.071578 -24.567578 19.171334 -16.313579 -18.660239 8.601849 -14.278607 -53.745555 78.789526 -38.878006 -13.709328 22.952681 13.360798 -12.219943 0.964691 11.416569 
0.134300 0.583145 0.023589 137.281627 64.457544 -60.139105 7.296240 -2.256465 -63.152528 -1.636497 17.815159 160.850716 14.569602 10.197884 -24.861790 -15.308771 10.454708 -47.177323 -21.198379 -16.881100 -86.970781 5.712299 -9.988374 131.176984 12.330680 -3.430297 -26.884439 -29.200154 -3.322039 -11.285857 12.993536 -15.054055 32.987903 -7.179227 -0.534320 -19.076004 -6.122004 -4.693836 5.198774 -20.219600 -16.422191 -7.495315 -9.797160 16.492713 12.312694 -6.877769 -38.826962 -7.496480 -62.339984 -52.658904 25.171826 49.865195 -56.548110 -27.335460 39.330952 -20.149002 2.756172 -3.267496 7.661828 11.042365 -24.146558 19.375374 -16.168829 -18.307495 8.843427 -13.434441 -50.560084 79.820838 -35.797382 -13.964720 23.081662 12.934587 -12.113714 1.016241 11.398192 
0.132552 0.582607 0.021616 137.074701 63.821139 -60.228934 7.436308 -2.224054 -62.775014 -1.758051 17.757162 160.758164 14.425323 10.252106 -25.055885 -15.136876 10.569780 -47.121012 -20.985759 -16.804279 -86.759613 5.850091 -10.271546 130.823222 12.489467 -3.180023 -26.815122 -29.417123 -3.183658 -11.296684 12.848860 -14.892835 33.091990 -7.207509 -0.490566 -18.808896 -6.119255 -4.669562 5.154703 -20.007508 -16.202386 -7.840112 -9.748282 16.224059 12.238007 -6.974420 -38.762677 -7.479631 -62.070315 -52.383834 25.011807 49.054409 -56.337384 -26.863736 39.441448 -20.146061 2.738517 -3.486841 7.607431 10.749768 -23.932574 19.363837 -16.105195 -18.036891 8.833094 -13.058540 -52.679244 80.594697 -37.961530 -14.271016 23.162904 12.079238 -11.690839 1.003882 11.227248 
0.131885 0.583353 0.019063 138.635754 62.709368 -58.377933 7.320488 -2.970608 -62.953990 -1.801986 17.672067 160.732649 14.670436 10.446734 -25.025722 -15.728803 10.523135 -47.201367 -20.485097 -16.378313 -87.809563 5.976201 -10.547346 130.352759 12.886514 -2.708093 -25.927038 -29.717829 -2.865997 -11.188730 12.530903 -14.772614 33.683286 -7.530572 -0.250435 -18.806231 -6.131725 -4.511194 5.024952 -19.590924 -16.204097 -8.160866 -9.364495 16.009495 11.845767 -7.007662 -38.687425 -7.785031 -61.616579 -52.236985 24.936032 49.799798 -56.543092 -27.723240 39.189938 -20.231250 3.054464 -3.623868 7.447131 10.524011 -24.084642 19.510563 -16.278207 -18.318281 8.753318 -13.003966 -52.739593 80.811808 -38.123393 -14.235821 23.133192 11.954102 -11.262391 1.064339 11.074927 
0.131752 0.583239 0.018877 139.802122 61.650115 -56.954584 7.491585 -3.346405 -62.991849 -1.755875 17.519765 160.760412 14.799950 11.135064 -24.969300 -15.933978 10.481903 -47.108302 -19.943662 -16.468966 -88.698264 5.846101 -11.181311 130.127649 13.195053 -2.166811 -25.148220 -29.965553 -2.608073 -10.903277 12.134743 -14.582419 34.137752 -7.801335 -0.149988 -18.876897 -6.173349 -4.450907 5.070700 -19.380654 -16.049276 -8.079404 -9.049903 15.821633 12.194091 -6.922032 -38.692134 -7.942076 -61.681420 -52.169693 25.045995 50.402030 -56.371666 -28.490363 40.165650 -20.112701 3.127697 -3.944064 7.344559 10.248619 -24.271151 19.529060 -16.468912 -18.283049 8.871633 -13.079468 -52.274497 80.983879 -37.680283 -14.717142 23.105173 11.675112 -10.763749 1.101793 10.846152 
0.132607 0.582164 0.020152 140.117372 61.033257 -56.451238 7.985442 -3.301636 -63.081785 -1.888592 17.245820 160.694875 14.787284 11.557212 -24.869820 -16.006850 10.331178 -46.917758 -19.593384 -17.179577 -88.859631 5.405093 -11.918274 130.032809 13.062777 -1.266384 -24.777619 -29.438115 -3.010575 -10.324718 11.790793 -14.237990 34.488779 -8.007340 -0.145401 -18.935209 -6.188365 -4.398718 5.026295 -19.381895 -15.999604 -7.301461 -8.704289 15.409118 12.498996 -6.965699 -38.546068 -7.904377 -61.873910 -52.056949 25.288127 50.601326 -56.565135 -28.647976 40.251481 -20.005618 2.812053 -3.986848 7.391828 10.364848 -24.288683 19.339436 -16.357777 -18.202117 8.716921 -13.229885 -51.927577 81.257809 -37.062106 -14.822235 23.048061 11.473929 -10.469167 1.208208 10.822719 
